<svg xmlns="http://www.w3.org/2000/svg" width="40" height="41" viewBox="0 0 40 41" fill="none">
            <path d="M13.8386 31.7457H9.09965V16.4847H13.8386V31.7457ZM11.4663 14.403C9.95111 14.403 8.72168 13.1474 8.72168 11.6323C8.72168 10.9044 9.01084 10.2063 9.52555 9.69157C10.0403 9.17686 10.7384 8.8877 11.4663 8.8877C12.1942 8.8877 12.8923 9.17686 13.407 9.69157C13.9217 10.2063 14.2109 10.9044 14.2109 11.6323C14.2109 13.1474 12.9814 14.403 11.4663 14.403ZM31.5747 31.7457H26.8464V24.3168C26.8464 22.5461 26.8105 20.2759 24.3826 20.2759C21.9189 20.2759 21.5409 22.1992 21.5409 24.1895V31.7457H16.8069V16.4847H21.3515V18.5664H21.4176C22.0503 17.3672 23.5957 16.1018 25.9011 16.1018C30.6972 16.1018 31.5788 19.2603 31.5788 23.3625V31.7457H31.5747Z" fill="white"></path>
          </svg>