<svg xmlns="http://www.w3.org/2000/svg" width="24" height="24" viewBox="0 0 24 25" fill="none">
          <path d="M18.8941 17.7201L13.5916 23.0241C13.3827 23.2331 13.1346 23.399 12.8615 23.5122C12.5884 23.6253 12.2957 23.6836 12.0001 23.6836C11.7045 23.6836 11.4118 23.6253 11.1387 23.5122C10.8657 23.399 10.6176 23.2331 10.4086 23.0241L5.10612 17.7201C4.20069 16.8147 3.48244 15.7399 2.99239 14.557C2.50233 13.3741 2.25007 12.1062 2.25 10.8258C2.24993 9.54544 2.50206 8.27756 2.99198 7.09459C3.48191 5.91163 4.20004 4.83675 5.10537 3.93131C6.0107 3.02588 7.08551 2.30764 8.26842 1.81758C9.45133 1.32753 10.7192 1.07526 11.9996 1.0752C13.28 1.07513 14.5479 1.32725 15.7308 1.81718C16.9138 2.3071 17.9887 3.02523 18.8941 3.93056C19.7996 4.83595 20.5179 5.91084 21.008 7.09385C21.4981 8.27686 21.7503 9.54482 21.7503 10.8253C21.7503 12.1058 21.4981 13.3738 21.008 14.5568C20.5179 15.7398 19.7996 16.8147 18.8941 17.7201ZM17.3041 5.52206C15.8974 4.11536 13.9895 3.32358 12.0001 3.32358C10.0107 3.32358 8.10283 4.11386 6.69612 5.52056C5.28941 6.92727 4.49913 8.83518 4.49913 10.8246C4.49913 12.814 5.28941 14.7219 6.69612 16.1286L12.0001 21.4311L17.3041 16.1301C18.0008 15.4336 18.5534 14.6067 18.9304 13.6966C19.3075 12.7866 19.5015 11.8111 19.5015 10.8261C19.5015 9.84098 19.3075 8.86555 18.9304 7.95548C18.5534 7.04541 18.0008 6.21853 17.3041 5.52206ZM12.0001 13.8261C11.6006 13.8351 11.2033 13.7642 10.8316 13.6176C10.4598 13.471 10.1211 13.2516 9.83536 12.9723C9.54958 12.6929 9.32249 12.3593 9.16741 11.991C9.01233 11.6228 8.9324 11.2272 8.9323 10.8276C8.9322 10.428 9.01193 10.0324 9.16683 9.664C9.32172 9.29563 9.54865 8.96191 9.83429 8.68245C10.1199 8.40299 10.4585 8.18341 10.8302 8.03661C11.2019 7.8898 11.5991 7.81873 11.9986 7.82756C12.7825 7.8449 13.5284 8.1684 14.0767 8.72882C14.625 9.28924 14.9321 10.042 14.9323 10.8261C14.9325 11.6101 14.6257 12.3631 14.0777 12.9238C13.5297 13.4845 12.784 13.8083 12.0001 13.8261Z" fill="white"></path>
        </svg>