<svg xmlns="http://www.w3.org/2000/svg" width="24" height="25" viewBox="0 0 24 25" fill="none">
          <path d="M20.8472 15.1816L16.4306 13.2025L16.4184 13.1969C16.1892 13.0989 15.939 13.0595 15.6907 13.0824C15.4424 13.1053 15.2037 13.1898 14.9963 13.3282C14.9718 13.3443 14.9484 13.3618 14.9259 13.3807L12.6441 15.326C11.1984 14.6238 9.70595 13.1425 9.00376 11.7157L10.9519 9.39911C10.9706 9.37567 10.9884 9.35223 11.0053 9.32692C11.1407 9.12002 11.2229 8.88285 11.2445 8.63652C11.2661 8.39019 11.2264 8.14235 11.1291 7.91504V7.90379L9.14438 3.47973C9.0157 3.18279 8.79444 2.93543 8.51362 2.77458C8.2328 2.61373 7.9075 2.54801 7.58626 2.58723C6.31592 2.75439 5.14986 3.37826 4.30588 4.34232C3.4619 5.30638 2.99771 6.54469 3.00001 7.82598C3.00001 15.2697 9.05626 21.326 16.5 21.326C17.7813 21.3283 19.0196 20.8641 19.9837 20.0201C20.9477 19.1761 21.5716 18.0101 21.7388 16.7397C21.7781 16.4186 21.7125 16.0934 21.5518 15.8126C21.3911 15.5318 21.144 15.3104 20.8472 15.1816ZM16.5 19.826C13.3185 19.8225 10.2682 18.5571 8.01856 16.3074C5.76888 14.0577 4.50348 11.0075 4.50001 7.82598C4.49648 6.9105 4.82631 6.02504 5.42789 5.33496C6.02947 4.64487 6.86167 4.19736 7.76907 4.07598C7.7687 4.07972 7.7687 4.08349 7.76907 4.08723L9.73782 8.49348L7.80001 10.8129C7.78034 10.8355 7.76247 10.8596 7.74657 10.885C7.60549 11.1015 7.52273 11.3508 7.5063 11.6087C7.48988 11.8665 7.54035 12.1243 7.65282 12.3569C8.5022 14.0941 10.2525 15.8313 12.0084 16.6797C12.2428 16.7912 12.502 16.8399 12.7608 16.8211C13.0196 16.8024 13.2692 16.7169 13.485 16.5729C13.5091 16.5566 13.5322 16.5391 13.5544 16.5204L15.8334 14.576L20.2397 16.5494H20.25C20.1301 17.4581 19.6833 18.292 18.9931 18.8951C18.3028 19.4981 17.4166 19.8291 16.5 19.826Z" fill="white"></path>
        </svg>