<svg xmlns="http://www.w3.org/2000/svg" width="40" height="41" viewBox="0 0 40 41" fill="none">
            <path d="M31.2732 13.3779C30.4326 13.7504 29.5296 14.002 28.5804 14.1158C29.5598 13.5297 30.2926 12.6073 30.642 11.5206C29.7217 12.0672 28.7146 12.452 27.6643 12.6582C26.958 11.904 26.0225 11.4042 25.003 11.2362C23.9835 11.0683 22.9371 11.2416 22.0263 11.7293C21.1154 12.217 20.391 12.9917 19.9655 13.9333C19.5401 14.8749 19.4374 15.9306 19.6735 16.9365C17.8088 16.8428 15.9847 16.3582 14.3195 15.514C12.6543 14.6697 11.1852 13.4848 10.0075 12.036C9.60488 12.7306 9.37335 13.536 9.37335 14.3936C9.3729 15.1657 9.56303 15.926 9.92688 16.607C10.2907 17.288 10.8171 17.8687 11.4591 18.2975C10.7145 18.2738 9.98627 18.0725 9.33509 17.7106V17.771C9.33502 18.8539 9.7096 19.9034 10.3953 20.7416C11.081 21.5798 12.0355 22.1549 13.097 22.3694C12.4062 22.5563 11.6819 22.5839 10.979 22.4499C11.2784 23.3817 11.8618 24.1965 12.6474 24.7802C13.4329 25.364 14.3814 25.6875 15.3599 25.7054C13.6988 27.0095 11.6473 27.7168 9.53542 27.7137C9.16133 27.7138 8.78755 27.692 8.41602 27.6483C10.5597 29.0266 13.055 29.7581 15.6035 29.7552C24.2306 29.7552 28.9468 22.61 28.9468 16.413C28.9468 16.2117 28.9417 16.0083 28.9327 15.807C29.85 15.1436 30.6419 14.3221 31.2711 13.3809L31.2732 13.3779Z" fill="white"></path>
          </svg>