<svg xmlns="http://www.w3.org/2000/svg" width="40" height="41" viewBox="0 0 40 41" fill="none">
            <path d="M32.2841 13.7721C32.1331 13.2336 31.839 12.746 31.4331 12.3612C31.0157 11.9646 30.5041 11.6809 29.9466 11.5369C27.8602 10.987 19.5013 10.987 19.5013 10.987C16.0166 10.9473 12.5328 11.1217 9.06941 11.5091C8.51192 11.6638 8.00129 11.9538 7.58294 12.3534C7.17189 12.7489 6.87415 13.2367 6.71862 13.771C6.34499 15.7838 6.16346 17.8275 6.17647 19.8746C6.16314 21.9199 6.34422 23.963 6.71862 25.9783C6.87082 26.5104 7.16744 26.9959 7.57961 27.3881C7.99178 27.7803 8.50504 28.0635 9.06941 28.2135C11.1836 28.7623 19.5013 28.7623 19.5013 28.7623C22.9905 28.802 26.4788 28.6277 29.9466 28.2402C30.5041 28.0962 31.0157 27.8125 31.4331 27.4159C31.8441 27.0237 32.1363 26.536 32.283 26.0049C32.6663 23.9929 32.8527 21.9484 32.8395 19.9002C32.8684 17.8434 32.6822 15.7892 32.2841 13.771V13.7721ZM16.8439 23.6786V16.0718L23.7985 19.8758L16.8439 23.6786Z" fill="white"></path>
          </svg>